#!OML:ASF E:/inclinewalkrobotboard/Project1/Captureday1/Session1/subject1.ASF
:FULLY-SPECIFIED
:DEGREES
363
root 0 0 0 -1.6717971152830313 -5.020704267776342 -6.848357592117035
lowerback 10.085067853473285 2.3071705845629125 5.068469480349842
upperback 0.024161253616618583 3.7391844959445097 1.3854351574032535
thorax -5.554450081106508 1.7231269105337446 -1.9351303933171204
lowerneck -14.478036659609911 -3.2863339514130274 -0.9167884289765255
upperneck 16.992616275828766 -4.531667380160167 1.419279159592571
head 7.870874527585485 -2.1062823828973807 0.13179666195948292
rclavicle -1.7864345805206212E-16 -7.754926654081396E-17
rhumerus -19.676645055204467 -7.298274920475678 -67.42576568584559
rradius 60.51984747163826
rwrist -8.093099198620186
rhand -13.360076253636665 -8.892123388592125
rfingers 7.125019999999864
rthumb 12.773455697960209 -38.13084342419222
lclavicle -8.593574587131659E-16 -4.132323324559783E-16
lhumerus -40.23669599402055 0.3094041463799626 83.34384966197689
lradius 39.04533406084034
lwrist 2.42752275512935
lhand -18.80375874035918 -1.0657504789245902
lfingers 7.125019999999866
lthumb 7.384107060639073 28.420237413894917
rfemur -6.533424969555544 2.4982082186341623 14.809721981428996
rtibia 24.91432432411321
rfoot -2.7724796255597193 -2.9442534234254625
rtoes 2.828319529540546
lfemur -5.496457253773814 -3.5228110959395447 -16.8387523251483
ltibia 24.72637347227947
lfoot -16.11082377374096 4.38418302698256
ltoes -25.131741069909648
364
root 0 0 0 -1.673645701165426 -4.884534928694418 -6.631353793839775
lowerback 10.084500714766266 2.2261379635353453 4.833795437319364
upperback 0.024782922820429654 3.602301417704907 1.3748330917036533
thorax -5.5543055296682216 1.6614165245928338 -1.7967604322194297
lowerneck -14.454928648431238 -3.2664499717118165 -0.9284701312901806
upperneck 16.954685421106966 -4.5005101950582045 1.4206428576567307
head 7.859514084335856 -2.0925275257966005 0.1386014063120309
rclavicle -1.8056942518710854E-16 -7.994515651553931E-17
rhumerus -19.718298961724997 -7.344646276236627 -67.46914961793007
rradius 60.38171638101201
rwrist -8.042485640790126
rhand -13.377965720060164 -8.76322469694969
rfingers 7.125019999999864
rthumb 12.755846066703294 -38.00436229079059
lclavicle -8.57793426680636E-16 -4.1165653926127875E-16
lhumerus -40.14795660861184 0.30737273487751476 83.33493023688737
lradius 38.91859381611915
lwrist 2.464701389611159
lhand -18.89779536817862 -0.7768631072215921
lfingers 7.125019999999868
lthumb 7.294389807485639 28.71470818981029
rfemur -7.125337435646044 2.3436436304577466 14.603943014683086
rtibia 25.83343823368152
rfoot -2.271941596816299 -2.972724394495653
rtoes 3.071074334747384
lfemur -3.7498887630539732 -3.766040084043119 -17.694148221822115
ltibia 22.881556997482043
lfoot -16.989090364810405 4.634913515813875
ltoes -25.10159970286291
365
root 0 0 0 -1.6742144852051934 -4.659157898080448 -6.278141973432849
lowerback 10.08084727969269 2.0927541287483264 4.447098503546628
upperback 0.025438591841103475 3.377137085055007 1.3562646615349667
thorax -5.5536821728102215 1.559822502154676 -1.5693710222264157
lowerneck -14.406715658252256 -3.2319557100584175 -0.9438326087335446
upperneck 16.884414535566247 -4.44721824215788 1.423675273958111
head 7.835045494659944 -2.068999926560356 0.14981056180993954
rclavicle -1.8077577206526048E-16 -8.185330762426531E-17
rhumerus -19.735193869095564 -7.365826357045102 -67.48633154722127
rradius 60.32343497298015
rwrist -8.020711042117476
rhand -13.385559362904276 -8.706804811025462
rfingers 7.125019999999865
rthumb 12.748149675042548 -37.94913833826511
lclavicle -8.521066972293483E-16 -4.0807503898364963E-16
lhumerus -40.03791429660407 0.30048586485450823 83.32387768993989
lradius 38.77208093102998
lwrist 2.512109988896423
lhand -19.01185491171322 -0.4279925595371843
lfingers 7.1250199999998705
lthumb 7.18590120671719 29.06891559378427
rfemur -7.7380893411828096 2.2430178352698222 14.482186605098294
rtibia 26.51668733484472
rfoot -1.9787258636505831 -3.0630377467091323
rtoes 3.1908262407990438
lfemur -2.038981615408102 -3.993117551759424 -18.548768298225042
ltibia 21.137509155777195
lfoot -17.79408249678374 4.833344392624342
ltoes -24.975838418898594
366
root 0 0 0 -1.6762965874380718 -4.267353277592967 -5.671634961807669
lowerback 10.07169647140779 1.8588094178804884 3.7784634506643164
upperback 0.02861873887603633 2.9839406992295476 1.325524400951552
thorax -5.549991388458201 1.3821803929387149 -1.1729774425091697
lowerneck -14.32191636676687 -3.169174778791833 -0.9684389280400308
upperneck 16.77279343477687 -4.34954330188185 1.4242786201894417
head 7.790620426438708 -2.026429746166961 0.1676961297894447
rclavicle -1.799762242028053E-16 -8.389854738368729E-17
rhumerus -19.730039436824782 -7.365763161177063 -67.48027539758733
rradius 60.33473303762598
rwrist -8.023942218913492
rhand -13.384491694114898 -8.71176325268291
rfingers 7.125019999999865
rthumb 12.748713583352597 -37.95426710272814
lclavicle -8.413665867008362E-16 -4.0237536716710503E-16
lhumerus -39.90793967510724 0.28741812495765007 83.31096281225689
lradius 38.610978981033654
lwrist 2.569500200319383
lhand -19.143615090422074 -0.026861566275028892
lfingers 7.125019999999873
lthumb 7.060926489316316 29.474734869398134
rfemur -8.28826765935245 2.1808005050674377 14.39529726113777
rtibia 26.939869254036704
rfoot -1.8355787604179767 -3.1756968434381028
rtoes 3.2133443874496312
lfemur -0.6933699673175715 -4.1488883331294035 -19.261405325851246
ltibia 19.890817480986755
lfoot -18.315406409926304 4.892275953433506
ltoes -24.662388395027975
367
root 0 0 0 -1.694022790286339 -3.5281626114475606 -4.531800640968057
lowerback 10.053723702596939 1.4076181058026809 2.5218365992106553
upperback 0.043230688147428864 2.2318477019773924 1.2753955284130485
thorax -5.53467301272335 1.0413329686132269 -0.4148852691014382
lowerneck -14.188985965165871 -3.0450393272518457 -1.0194308616076322
upperneck 16.628461936783165 -4.151834073857195 1.4051833503079647
head 7.720029081872829 -1.9423264552517263 0.1957990413075356
rclavicle -1.8172804402598666E-16 -8.730268540520691E-17
rhumerus -19.73995400130565 -7.386461206484311 -67.49193534520461
rradius 60.28750883715261
rwrist -8.006256614363355
rhand -13.392163209387748 -8.657031325298789
rfingers 7.125019999999865
rthumb 12.740603277395158 -37.9009578910737
lclavicle -8.247336448822981E-16 -3.9344918359073156E-16
lhumerus -39.746937475671615 0.26761405713575936 83.29545040340314
lradius 38.419412854660585
lwrist 2.6414678257731996
lhand -19.30469198383884 0.46184931941456675
lfingers 7.125019999999876
lthumb 6.9085402763296635 29.968142335430834
rfemur -8.790550996228546 2.110385187806977 14.281630368508925
rtibia 27.349396277427722
rfoot -1.659787811676132 -3.2654525100075578
rtoes 3.2504142283101602
lfemur 0.20796921718245187 -4.220539864950968 -19.81018357466647
ltibia 19.223157561516096
lfoot -18.500575142635583 4.786421198945122
ltoes -24.095991624114244
